# AST/ASF file generated using VICON BodyLanguage
# -----------------------------------------------
:version 1.10
:name VICON
:units
  mass 1.0
  length 0.45
  angle deg
:documentation
   .ast/.asf automatically generated from VICON data using
   VICON BodyBuilder and BodyLanguage model FoxedUp or BRILLIANT.MOD
:root
   order TX TY TZ RX RY RZ
   axis XYZ
   position 0 0 0  
   orientation 0 0 0 
:bonedata
  begin
     id 1 
     name lhipjoint
     direction 0.643824 -0.71708 0.266994 
     length 2.52133 
     axis 0 0 0  XYZ
  end
  begin
     id 2 
     name lfemur
     direction 0.34202 -0.939693 0  
     length 7.51824  
     axis 0 0 20  XYZ
    dof rx ry rz
    limits (-160.0 20.0)
           (-70.0 70.0)
           (-60.0 70.0)
  end
  begin
     id 3 
     name ltibia
     direction 0.34202 -0.939693 0   
     length 7.3685   
     axis 0 0 20   XYZ
    dof rx
    limits (-10.0 170.0)
  end
  begin
     id 4 
     name lfoot
     direction 0.105419 -0.289636 0.951314   
     length 2.20972   
     axis -90 7.62852e-016 20   XYZ
    dof rx rz
    limits (-45.0 90.0)
           (-70.0 20.0)
  end
  begin
     id 5 
     name ltoes
     direction 1.53549e-011 -4.21833e-011 1   
     length 1.10139   
     axis -90 7.62852e-016 20   XYZ
    dof rx
    limits (-90.0 20.0)
  end
  begin
     id 6 
     name rhipjoint
     direction -0.608823 -0.743445 0.276811   
     length 2.43192  
     axis 0 0 0  XYZ 
  end
  begin
     id 7 
     name rfemur
     direction -0.34202 -0.939693 0   
     length 7.69715   
     axis 0 0 -20   XYZ
    dof rx ry rz
    limits (-160.0 20.0)
           (-70.0 70.0)
           (-70.0 60.0)
  end
  begin
     id 8 
     name rtibia
     direction -0.34202 -0.939693 0   
     length 7.44924   
     axis 0 0 -20   XYZ
    dof rx
    limits (-10.0 170.0)
 end
 begin
     id 9 
     name rfoot
     direction -0.103614 -0.284677 0.953007   
     length 2.22623  
     axis -90 -7.62852e-016 -20   XYZ
    dof rx rz
    limits (-45.0 90.0)
           (-20.0 70.0)
  end
  begin
     id 10 
     name rtoes
     direction -1.53537e-011 -4.22026e-011 1   
     length 1.11   
     axis -90 -7.62852e-016 -20   XYZ
    dof rx
    limits (-90.0 20.0)
  end
  begin
     id 11 
     name lowerback
     direction -0.0101212 0.99662 -0.0815298   
     length 2.08277   
     axis 0 0 0   XYZ
    dof rx ry rz
    limits (-20.0 45.0)
           (-30.0 30.0)
           (-30.0 30.0)
  end
  begin
     id 12 
     name upperback
     direction 0.024314 0.999591 -0.0150645   
     length 2.08524   
     axis 0 0 0   XYZ
    dof rx ry rz
    limits (-20.0 45.0)
           (-30.0 30.0)
           (-30.0 30.0)
  end
  begin
     id 13 
     name thorax
     direction 0.0285959 0.999323 0.0231357   
     length 2.09645   
     axis 0 0 0   XYZ
    dof rx ry rz
    limits (-20.0 45.0)
           (-30.0 30.0)
           (-30.0 30.0)
  end
  begin
     id 14 
     name lowerneck
     direction -0.065512 0.979301 0.191515   
     length 1.63798   
     axis 0 0 0   XYZ
    dof rx ry rz
    limits (-20.0 45.0)
           (-30.0 30.0)
           (-30.0 30.0)
  end
  begin
     id 15 
     name upperneck
     direction 0.0498479 0.98191 -0.182667   
     length 1.68731   
     axis 0 0 0   XYZ
    dof rx ry rz
    limits (-20.0 45.0)
           (-30.0 30.0)
           (-30.0 30.0)
  end
  begin
     id 16
     name head
     direction 0.0230358 0.996257 -0.0833175  
     length 1.69785  
     axis 0 0 0   XYZ
    dof rx ry rz
    limits (-20.0 45.0)
           (-30.0 30.0)
           (-30.0 30.0)
  end
  begin
     id 17 
     name lclavicle
     direction 0.967963 0.201165 -0.150269  
     length 3.63976  
     axis 0 0 0   XYZ
    dof ry rz
    limits (-20.0 10.0)
           (0.0 20.0)
  end
  begin
     id 18 
     name lhumerus
     direction 1 -4.48954e-011 -2.92837e-028   
     length 5.32462   
     axis 180 -30 -90   XYZ
    dof rx ry rz
    limits (-60.0 90.0)
           (-90.0 90.0)
           (-90.0 90.0)
  end
  begin
     id 19
     name lradius
     direction 1 -4.48958e-011 -6.39511e-027   
     length 3.48402   
     axis 180 -30 -90   XYZ
    dof rx
    limits (-10.0 170.0)
  end
  begin
     id 20
     name lwrist
     direction 1 -4.48975e-011 -1.1413e-026   
     length 1.74201   
     axis 6.88575e-015 90 90   XYZ
    dof ry
    limits (-180.0 0.0)
 end
  begin
     id 21 
     name lhand
     direction 1 -4.48899e-011 -2.28192e-026   
     length 0.572476   
     axis 1.45643e-014 90 90   XYZ
    dof rx rz
    limits (-90.0 90.0)
           (-45.0 45.0)
  end
  begin
     id 22 
     name lfingers
     direction 1 -4.49155e-011 -4.5684e-026   
     length 0.461545   
     axis 2.91283e-014 90 90   XYZ
    dof rx
    limits (0.0 90.0)
  end
  begin
     id 23
     name lthumb
     direction 0.707107 -6.34943e-011 0.707107   
     length 0.662688   
     axis -90 45 -2.25915e-014   XYZ
    dof rx rz
    limits (-45.0 45.0)
           (-45.0 45.0)
  end
  begin
     id 24 
     name rclavicle
     direction -0.964103 0.264019 -0.0282629   
     length 3.54491  
     axis 0 0 0   XYZ 
    dof ry rz
    limits (-10.0 20.0)
           (-20.0 0.0)
  end
  begin
     id 25 
     name rhumerus
     direction -1 -4.48964e-011 -2.45032e-027  
     length 5.33589   
     axis 180 30 90   XYZ
    dof rx ry rz
    limits (-90.0 60.0)
           (-90.0 90.0)
           (-90.0 90.0)
  end
  begin
     id 26 
     name rradius
     direction -1 -4.48987e-011 -1.55093e-027   
     length 3.64134   
     axis 180 30 90   XYZ
    dof rx
    limits (-10.0 170.0)
  end
  begin
     id 27 
     name rwrist
     direction -1 -4.4897e-011 -1.14128e-026   
     length 1.82067   
     axis 6.88575e-015 -90 -90   XYZ
    dof ry
    limits (-180.0 0.0)
  end
  begin
     id 28
     name rhand
     direction -1 -4.49021e-011 -2.28301e-026   
     length 0.734811   
     axis 1.45643e-014 -90 -90   XYZ
    dof rx rz
    limits (-90.0 90.0)
           (-45.0 45.0)
  end
  begin
     id 29
     name rfingers
     direction -1 -4.48862e-011 -4.56319e-026   
     length 0.592424   
     axis 2.91283e-014 -90 -90   XYZ
    dof rx
    limits (0.0 90.0)
  end
  begin
     id 30
     name rthumb
     direction -0.707107 -6.34978e-011 0.707107   
     length 0.850605   
     axis -90 -45 2.25915e-014   XYZ
    dof rx rz
    limits (-45.0 45.0)
           (-45.0 45.0)
  end
:hierarchy
  begin
    root lhipjoint rhipjoint lowerback
    lhipjoint lfemur
    lfemur ltibia
    ltibia lfoot
    lfoot ltoes
    rhipjoint rfemur
    rfemur rtibia
    rtibia rfoot
    rfoot rtoes
    lowerback upperback
    upperback thorax
    thorax lowerneck lclavicle rclavicle
    lowerneck upperneck
    upperneck head
    lclavicle lhumerus
    lhumerus lradius
    lradius lwrist
    lwrist lhand lthumb
    lhand lfingers
    rclavicle rhumerus
    rhumerus rradius
    rradius rwrist
    rwrist rhand rthumb
    rhand rfingers
  end

#!OML:ASF F:\VICON\USERDATA\INSTALL\rory3\rory3.ASF
:FULLY-SPECIFIED
:DEGREES
103
root -2.62002 17.6539 -1.02072 14.8994 39.7974 1.0905
lowerback 8.21224 0.768086 0.696448
upperback 4.34881 1.18978 4.29849
thorax -0.179306 0.594697 3.95813
lowerneck -15.7946 -2.28233 -8.2647
upperneck 34.4475 -0.127983 -0.106191
head 14.599 -0.970086 1.42608
rclavicle 1.43125e-014 -1.59028e-014
rhumerus 4.69507 -0.691522 -72.9531
rradius 41.2756
rwrist -19.3582
rhand -31.4246 -20.3284
rfingers 7.12502
rthumb -4.69313 -50.2565
lclavicle 1.43125e-014 -1.59028e-014
lhumerus -25.3117 -22.1976 95.9388
lradius 71.112
lwrist 20.238
lhand -2.81056 44.034
lfingers 7.12502
lthumb 22.8958 72.6947
rfemur -16.4191 -15.2345 17.2446
rtibia 35.199
rfoot -31.0188 -22.2861
rtoes -5.52477
lfemur -31.0965 -2.86195 -10.1432
ltibia 8.21068
lfoot 7.0199 16.3513
ltoes -21.1783
104
root -2.52369 17.639 -1.01397 14.8856 40.5911 1.18229
lowerback 8.62472 0.865729 0.651803
upperback 4.26032 1.33439 4.31289
thorax -0.508743 0.669589 3.97979
lowerneck -15.7369 -2.52787 -8.27099
upperneck 34.4565 -0.514974 -0.0164401
head 14.6098 -1.11907 1.39997
rclavicle -1.59028e-015 -1.74931e-014
rhumerus 4.54346 -1.40608 -73.1464
rradius 41.2818
rwrist -19.4713
rhand -31.5606 -20.3876
rfingers 7.12502
rthumb -4.82442 -50.3127
lclavicle -1.59028e-015 -1.74931e-014
lhumerus -25.5942 -22.4252 96.1276
lradius 71.1743
lwrist 20.7035
lhand -3.72879 44.1096
lfingers 7.12502
lthumb 22.0144 72.8767
rfemur -16.3008 -15.7352 16.9749
rtibia 35.8708
rfoot -30.9257 -22.4518
rtoes -6.50283
lfemur -31.7577 -2.65301 -10.6884
ltibia 9.18223
lfoot 8.67431 14.1999
ltoes -20.9988
105
root -2.42302 17.625 -1.00431 14.9598 41.4781 1.31794
lowerback 8.80099 0.941155 0.696374
upperback 4.25311 1.44476 4.27038
thorax -0.618416 0.727122 3.89728
lowerneck -15.7694 -2.83111 -8.31871
upperneck 34.4266 -1.0449 0.280321
head 14.6307 -1.30666 1.44109
rclavicle -4.77083e-015 -2.38542e-014
rhumerus 4.53375 -2.51944 -73.5558
rradius 41.299
rwrist -19.0996
rhand -31.547 -21.3461
rfingers 7.12502
rthumb -4.81136 -51.2715
lclavicle -4.77083e-015 -2.38542e-014
lhumerus -25.7888 -22.6691 96.1587
lradius 71.2711
lwrist 21.1716
lhand -4.58132 43.8541
lfingers 7.12502
lthumb 21.1956 72.7153
rfemur -16.267 -16.3757 16.6897
rtibia 36.6778
rfoot -31.1879 -22.4505
rtoes -7.54218
lfemur -32.4532 -2.5295 -11.2166
ltibia 10.0668
lfoot 9.59514 12.1904
ltoes -18.3434
106
root -2.32114 17.6129 -0.992786 15.0895 42.4085 1.55286
lowerback 8.87064 1.072 0.728296
upperback 4.29611 1.62261 4.22445
thorax -0.621389 0.817413 3.81368
lowerneck -15.6793 -3.24081 -8.57126
upperneck 34.3102 -1.73691 0.737313
head 14.6018 -1.56485 1.55599
rclavicle 7.55382e-014 -6.36111e-015
rhumerus 4.48821 -3.87214 -73.9017
rradius 41.3543
rwrist -18.7735
rhand -31.6991 -22.3142
rfingers 7.12502
rthumb -4.95823 -52.2362
lclavicle 7.55382e-014 -6.36111e-015
lhumerus -25.8564 -22.8628 96.2065
lradius 71.2746
lwrist 21.3413
lhand -4.6922 43.1915
lfingers 7.12502
lthumb 21.0891 72.0646
rfemur -16.2625 -17.0883 16.343
rtibia 37.6062
rfoot -31.2616 -22.8129
rtoes -8.04214
lfemur -33.0895 -1.80894 -12.2228
ltibia 10.9929
lfoot 9.96046 9.93424
ltoes -17.4842
107
root -2.22193 17.6002 -0.98152 15.4018 43.3331 2.02928
lowerback 8.89973 1.19668 0.533508
upperback 4.34524 1.77379 4.21604
thorax -0.601113 0.891058 3.9009
lowerneck -15.3394 -3.56162 -8.75811
upperneck 34.0019 -2.23809 0.890167
head 14.42 -1.77074 1.56733
rclavicle -2.70347e-014 -1.59028e-014
rhumerus 4.4277 -4.96424 -74.1461
rradius 41.4287
rwrist -18.8338
rhand -32.0348 -23.0142
rfingers 7.12502
rthumb -5.28231 -52.9284
lclavicle -2.70347e-014 -1.59028e-014
lhumerus -25.778 -22.7513 96.3535
lradius 70.9914
lwrist 20.937
lhand -4.65772 43.027
lfingers 7.12502
lthumb 21.1222 71.8965
rfemur -16.3474 -17.7377 15.8272
rtibia 38.6246
rfoot -30.9059 -23.4262
rtoes -7.40391
lfemur -33.7181 -0.989119 -13.5166
ltibia 12.0223
lfoot 10.1077 8.21615
ltoes -18.3625
108
root -2.126 17.5914 -0.973543 15.8525 44.3058 2.46888
lowerback 8.84346 1.24489 0.37913
upperback 4.35962 1.82567 4.22566
thorax -0.563447 0.915379 3.99476
lowerneck -14.9901 -3.80304 -8.93507
upperneck 33.6465 -2.64338 1.08092
head 14.2124 -1.93103 1.60917
rclavicle 4.85035e-014 -3.18055e-015
rhumerus 4.45093 -5.7063 -74.4619
rradius 41.4435
rwrist -18.9658
rhand -32.4229 -23.421
rfingers 7.12502
rthumb -5.65701 -53.3255
lclavicle 4.85035e-014 -3.18055e-015
lhumerus -25.8215 -22.371 96.3629
lradius 70.9074
lwrist 20.7916
lhand -5.14386 43.084
lfingers 7.12502
lthumb 20.6552 72.0049
rfemur -16.6943 -18.3111 15.4066
rtibia 39.7051
rfoot -30.6597 -23.9659
rtoes -6.58866
lfemur -34.4546 -0.14084 -14.8201
ltibia 13.0897
lfoot 9.86674 6.52632
ltoes -19.3151
109
root -2.03043 17.5869 -0.960892 16.2416 45.1837 2.84492
lowerback 8.76912 1.35126 0.189614
upperback 4.42481 1.95137 4.2717
thorax -0.470794 0.975271 4.14106
lowerneck -14.8338 -4.13165 -9.23241
upperneck 33.3799 -3.15154 1.37124
head 14.1045 -2.14021 1.69351
rclavicle 3.97569e-015 -2.06736e-014
rhumerus 4.6005 -6.47645 -74.8007
rradius 41.267
rwrist -19.4713
rhand -33.0083 -23.0925
rfingers 7.12502
rthumb -6.22221 -52.9812
lclavicle 3.97569e-015 -2.06736e-014
lhumerus -25.9228 -21.9987 96.4079
lradius 70.892
lwrist 21.4067
lhand -5.84933 42.1013
lfingers 7.12502
lthumb 19.9772 71.0944
rfemur -17.0156 -18.7387 15.0312
rtibia 40.8305
rfoot -30.6 -24.2016
rtoes -5.83638
lfemur -35.0515 0.609575 -15.9416
ltibia 14.138
lfoot 9.08815 4.47039
ltoes -18.5581
110
root -1.93012 17.5824 -0.94813 16.3917 46.0655 3.11159
lowerback 8.78346 1.54824 0.244469
upperback 4.57528 2.21574 4.26512
thorax -0.339195 1.10779 4.08059
lowerneck -14.7011 -4.619 -9.49682
upperneck 33.1167 -3.9271 1.74868
head 14.0275 -2.44882 1.76219
rclavicle 0 -4.29375e-014
rhumerus 4.63367 -7.3028 -75.1069
rradius 41.3304
rwrist -20.4681
rhand -33.8724 -23.1812
rfingers 7.12502
rthumb -7.05642 -53.0436
lclavicle 0 -4.29375e-014
lhumerus -25.9498 -21.8803 96.4563
lradius 70.7338
lwrist 22.1624
lhand -6.15416 41.7593
lfingers 7.12502
lthumb 19.6842 70.7827
rfemur -17.1358 -19.2002 14.6864
rtibia 41.9527
rfoot -30.4015 -24.2776
rtoes -5.03153
lfemur -35.4599 1.01323 -16.7743
ltibia 15.1526
lfoot 8.23742 2.86643
ltoes -17.0529
111
root -1.82822 17.5772 -0.936547 16.4801 47.0929 3.18193
lowerback 8.7522 1.7016 0.691784
upperback 4.64476 2.451 4.19599
thorax -0.245771 1.23296 3.73574
lowerneck -14.373 -5.06435 -9.49396
upperneck 32.7769 -4.69083 1.98746
head 13.8643 -2.73853 1.73413
rclavicle -1.51076e-014 -6.04305e-014
rhumerus 4.47597 -8.20308 -75.575
rradius 41.4524
rwrist -21.3443
rhand -34.5898 -23.3346
rfingers 7.12502
rthumb -7.74888 -53.1726
lclavicle -1.51076e-014 -6.04305e-014
lhumerus -26.0921 -21.8451 96.3543
lradius 70.5963
lwrist 22.5979
lhand -6.43001 43.0089
lfingers 7.12502
lthumb 19.4189 72.0592
rfemur -17.3494 -19.8164 14.5739
rtibia 43.0447
rfoot -29.9155 -24.846
rtoes -5.53395
lfemur -35.9344 1.23199 -17.3713
ltibia 16.0306
lfoot 7.91933 1.6762
ltoes -16.1997
112
root -1.7321 17.5747 -0.923484 16.7344 48.1794 3.38898
lowerback 8.69296 1.79788 1.0101
upperback 4.67966 2.60117 4.16158
thorax -0.170963 1.31399 3.50919
lowerneck -14.0305 -5.37464 -9.53548
upperneck 32.4811 -5.23629 2.21718
head 13.7071 -2.94343 1.74821
rclavicle 1.11319e-014 1.59028e-014
rhumerus 4.55208 -8.96354 -76.0808
rradius 41.0604
rwrist -21.6526
rhand -35.0367 -23.714
rfingers 7.12502
rthumb -8.1802 -53.5356
lclavicle 1.11319e-014 1.59028e-014
lhumerus -26.3345 -21.615 96.2595
lradius 70.5145
lwrist 23.0161
lhand -7.64345 44.9205
lfingers 7.12502
lthumb 18.2519 74.0842
rfemur -17.5821 -20.283 14.4197
rtibia 44.0696
rfoot -29.7732 -25.4342
rtoes -4.83751
lfemur -36.3627 1.25069 -17.9857
ltibia 16.7154
lfoot 7.83771 0.613602
ltoes -15.8786
